<?xml version="1.0" encoding="UTF-8"?><svg width="500" height="500" enable-background="new 0 0 512 512" version="1.1" viewBox="0 0 512 512" xml:space="preserve" xmlns="http://www.w3.org/2000/svg"><g transform="translate(-1 -1)"><path d="m98.108 513.01c-2.26 0-4.52-0.865-6.241-2.586-3.452-3.452-3.452-9.031 0-12.482l24.594-24.594 25.962-129.79c0.53-2.675 2.26-4.943 4.705-6.171l88.276-44.138c4.352-2.18 9.649-0.406 11.847 3.955 2.18 4.361 0.406 9.657-3.955 11.847l-84.409 42.205-25.645 128.18c-0.344 1.713-1.174 3.275-2.41 4.511l-26.483 26.483c-1.721 1.721-3.981 2.586-6.241 2.586"/><path d="m115.76 283.49h-35.31c-4.882 0-8.828-3.955-8.828-8.828s3.946-8.828 8.828-8.828h32.865l42.037-25.22c1.377-0.83 2.94-1.262 4.546-1.262h61.793c4.882 0 8.828 3.955 8.828 8.828s-3.946 8.828-8.828 8.828h-59.348l-42.037 25.22c-1.377 0.829-2.94 1.262-4.546 1.262"/><path d="m221.7 221.7c-0.574 0-1.156-0.053-1.739-0.177l-44.138-8.828c-2.295-0.45-4.317-1.81-5.614-3.752l-33.289-49.929-40.545-8.113c-2.295-0.45-4.317-1.81-5.614-3.752l-17.655-26.483c-2.71-4.061-1.615-9.543 2.445-12.244 4.061-2.719 9.534-1.607 12.244 2.445l15.634 23.446 40.545 8.113c2.295 0.45 4.317 1.81 5.614 3.752l33.289 49.929 40.545 8.113c4.776 0.953 7.883 5.606 6.921 10.381-0.83 4.195-4.52 7.099-8.643 7.099"/><path d="m292.31 221.7c-4.122 0-7.812-2.904-8.642-7.097-0.962-4.776 2.145-9.428 6.921-10.381l40.545-8.113 33.289-49.929c1.298-1.942 3.319-3.302 5.614-3.752l40.545-8.113 15.634-23.446c2.701-4.052 8.166-5.164 12.244-2.445 4.061 2.701 5.155 8.183 2.445 12.244l-17.655 26.483c-1.298 1.942-3.319 3.302-5.614 3.752l-40.545 8.113-33.289 49.929c-1.298 1.942-3.319 3.302-5.614 3.752l-44.138 8.828c-0.583 0.122-1.175 0.175-1.74 0.175"/><path d="m415.9 513.01c-2.26 0-4.52-0.865-6.241-2.586l-26.483-26.483c-1.236-1.236-2.066-2.798-2.41-4.511l-25.644-128.18-84.409-42.205c-4.361-2.189-6.135-7.486-3.955-11.847 2.189-4.361 7.486-6.135 11.847-3.955l88.276 44.138c2.445 1.227 4.175 3.496 4.705 6.171l25.962 129.79 24.594 24.594c3.452 3.452 3.452 9.031 0 12.482-1.722 1.722-3.982 2.587-6.242 2.587"/><path d="m433.56 283.49h-35.31c-1.607 0-3.169-0.433-4.546-1.262l-42.037-25.22h-59.348c-4.882 0-8.828-3.955-8.828-8.828s3.946-8.828 8.828-8.828h61.793c1.607 0 3.169 0.433 4.546 1.262l42.037 25.22h32.865c4.882 0 8.828 3.955 8.828 8.828-1e-3 4.873-3.947 8.828-8.828 8.828"/><path d="m248.18 115.77c-19.474 0-35.31-15.837-35.31-35.31-0.124-1.103-1.192-17.461 8.192-27.648 4.608-5.014 10.937-7.662 18.291-7.662 4.882 0 8.828 3.955 8.828 8.828s-3.946 8.828-8.828 8.828c-3.107 0-4.467 1.05-5.305 1.96-3.293 3.584-3.814 11.776-3.558 14.963 0.035 10.47 7.954 18.388 17.69 18.388 4.882 0 8.828 3.955 8.828 8.828 0 4.871-3.946 8.825-8.828 8.825"/><path d="m212.86 151.07c-4.564 0-8.43-3.513-8.792-8.148-0.044-0.53-4.564-53.645-35.337-53.645-47.475 0-52.754-75.67-52.948-78.892-0.3-4.864 3.39-9.048 8.245-9.357 4.785-0.406 9.057 3.381 9.375 8.254 0.044 0.618 4.855 62.34 35.328 62.34 47.086 0 52.727 67.098 52.939 69.959 0.371 4.855-3.266 9.092-8.121 9.463-0.23 0.018-0.468 0.026-0.689 0.026"/><path d="m265.83 115.77c-4.882 0-8.828-3.955-8.828-8.828s3.946-8.828 8.828-8.828c9.737 0 17.655-7.918 17.655-17.655 0.221-3.381 0-11.891-3.54-15.713-0.839-0.9-2.198-1.942-5.288-1.942-4.882 0-8.828-3.955-8.828-8.828s3.946-8.828 8.828-8.828c7.353 0 13.683 2.648 18.291 7.662 9.384 10.187 8.316 26.545 8.157 28.381 0.036 18.743-15.801 34.579-35.275 34.579"/><path d="m301.15 151.08c-0.221 0-0.45-9e-3 -0.671-0.026-4.864-0.362-8.51-4.608-8.139-9.472 0.212-2.851 5.853-69.95 52.939-69.95 30.579 0 35.284-61.722 35.328-62.34 0.3-4.873 4.484-8.651 9.366-8.263 4.855 0.309 8.554 4.493 8.254 9.357-0.194 3.222-5.473 78.901-52.948 78.901-30.905 0-35.293 53.098-35.337 53.636-0.353 4.635-4.22 8.157-8.792 8.157"/><path d="m266.57 195.22h-19.138c-23.967 0-43.396-19.43-43.396-43.405v-19.121c0-23.976 19.43-43.405 43.396-43.405h19.138c23.967 0 43.396 19.43 43.396 43.405v19.121c0 23.975-19.429 43.405-43.396 43.405"/><path d="m301.14 230.53c0 19.5-19.756 35.31-44.138 35.31s-44.138-15.81-44.138-35.31 19.756-35.31 44.138-35.31 44.138 15.81 44.138 35.31"/><path d="m257 504.18c-34.127 0-61.793-27.666-61.793-61.793v-35.31c0-34.127 27.666-61.793 61.793-61.793s61.793 27.666 61.793 61.793v35.31c0 34.128-27.666 61.793-61.793 61.793"/><path d="m257 345.29c-14.627 0-26.483-11.855-26.483-26.483v-26.483c0-14.627 11.855-26.483 26.483-26.483 14.627 0 26.483 11.855 26.483 26.483v26.483c0 14.627-11.856 26.483-26.483 26.483"/></g></svg>
